<svg width="927" height="356" viewBox="0 0 927 356" fill="none" xmlns="http://www.w3.org/2000/svg">
<path d="M188.006 185L182.206 165.6H134.006L128.206 185H83.0062L133.206 47.4H184.606L234.806 185H188.006ZM143.206 134.8H173.006L158.606 85.8H157.806L143.206 134.8Z" fill="#1F4E6B"/>
<path d="M433.991 82.6V185H389.791V82.6H344.591V47.4H478.991V82.6H433.991Z" fill="#1F4E6B"/>
<path d="M801.319 185L743.519 118.2V185H702.919V47.4H741.519L799.319 115.2V47.4H839.919V185H801.319Z" fill="#1F4E6B"/>
<path d="M300.867 187.73C284.487 187.73 272.342 183.425 264.432 174.815C256.522 166.205 252.567 154.095 252.567 138.485V127.775C252.567 112.445 256.522 100.475 264.432 91.865C272.342 83.255 284.452 78.95 300.762 78.95C304.962 78.95 308.882 79.265 312.522 79.895C316.162 80.455 319.522 81.26 322.602 82.31C325.682 83.36 328.377 84.48 330.687 85.67L333.312 112.235C329.882 110.275 326.102 108.665 321.972 107.405C317.842 106.075 313.187 105.41 308.007 105.41C299.887 105.41 294.007 107.37 290.367 111.29C286.727 115.21 284.907 120.88 284.907 128.3V137.225C284.907 144.785 286.832 150.595 290.682 154.655C294.532 158.715 300.552 160.745 308.742 160.745C313.852 160.745 318.437 160.15 322.497 158.96C326.627 157.7 330.547 156.09 334.257 154.13L331.737 180.8C328.097 182.76 323.617 184.405 318.297 185.735C312.977 187.065 307.167 187.73 300.867 187.73Z" fill="#1F4E6B"/>
<path d="M506.544 185V83.004H535.526V185H506.544ZM506.544 52.388H535.526V72.598H506.544V52.388ZM630.555 185.774C611.864 185.774 598.534 181.273 590.565 172.272C582.653 163.271 578.697 150.399 578.697 133.658C578.697 116.859 582.653 104.045 590.565 95.216C598.534 86.3293 611.864 81.886 630.555 81.886C649.246 81.886 662.547 86.3293 670.459 95.216C678.371 104.045 682.327 116.859 682.327 133.658C682.327 150.399 678.371 163.271 670.459 172.272C662.547 181.273 649.246 185.774 630.555 185.774ZM630.555 166.166C637.263 166.166 642.738 164.073 646.981 159.888C651.281 155.645 653.431 146.931 653.431 133.744C653.431 120.557 651.281 111.9 646.981 107.772C642.738 103.587 637.263 101.494 630.555 101.494C623.847 101.494 618.343 103.587 614.043 107.772C609.743 111.9 607.593 120.557 607.593 133.744C607.593 146.931 609.743 155.645 614.043 159.888C618.343 164.073 623.847 166.166 630.555 166.166Z" fill="#1F4E6B"/>
<path d="M91.962 250.078C84.955 250.078 79.7318 248.23 76.2925 244.534C72.8788 240.812 71.172 235.512 71.172 228.633V219.894C71.172 213.144 72.8916 207.933 76.331 204.263C79.7703 200.567 84.955 198.719 91.885 198.719C93.733 198.719 95.4398 198.86 97.0055 199.142C98.5711 199.425 99.9956 199.81 101.279 200.297C102.562 200.759 103.692 201.286 104.667 201.876L105.552 212.194C104.038 211.398 102.37 210.705 100.547 210.115C98.7508 209.499 96.659 209.191 94.272 209.191C90.6016 209.191 87.881 210.179 86.11 212.155C84.3646 214.106 83.492 216.852 83.492 220.394V228.171C83.492 231.688 84.3775 234.434 86.1485 236.41C87.9451 238.387 90.807 239.375 94.734 239.375C97.044 239.375 99.1101 239.067 100.932 238.451C102.755 237.835 104.423 237.091 105.937 236.218L105.052 246.767C104.077 247.357 102.934 247.909 101.625 248.422C100.316 248.91 98.8535 249.308 97.2365 249.616C95.6451 249.924 93.887 250.078 91.962 250.078ZM134.754 250.078C128.645 250.078 124.025 248.564 120.894 245.535C117.788 242.481 116.236 238.194 116.236 232.676V227.709C116.236 222.114 117.801 217.776 120.933 214.696C124.064 211.591 128.671 210.038 134.754 210.038C140.837 210.038 145.431 211.591 148.537 214.696C151.668 217.776 153.234 222.114 153.234 227.709V232.676C153.234 238.194 151.681 242.481 148.576 245.535C145.47 248.564 140.863 250.078 134.754 250.078ZM134.754 240.799C136.936 240.799 138.591 240.145 139.721 238.836C140.876 237.501 141.453 235.615 141.453 233.176V227.209C141.453 224.642 140.876 222.692 139.721 221.357C138.591 220.022 136.936 219.355 134.754 219.355C132.572 219.355 130.904 220.022 129.749 221.357C128.62 222.692 128.055 224.642 128.055 227.209V233.176C128.055 235.615 128.62 237.501 129.749 238.836C130.904 240.145 132.572 240.799 134.754 240.799ZM190.223 249V226.747C190.223 225.361 190.043 224.167 189.684 223.166C189.325 222.14 188.721 221.357 187.874 220.818C187.027 220.279 185.872 220.009 184.409 220.009C183.203 220.009 182.138 220.228 181.214 220.664C180.29 221.075 179.507 221.652 178.865 222.396C178.249 223.115 177.787 223.936 177.479 224.86L175.67 219.355H177.672C178.083 217.635 178.75 216.095 179.674 214.735C180.624 213.375 181.92 212.297 183.562 211.501C185.205 210.68 187.284 210.269 189.799 210.269C192.623 210.269 194.933 210.821 196.729 211.924C198.526 213.002 199.848 214.619 200.695 216.775C201.568 218.931 202.004 221.626 202.004 224.86V249H190.223ZM165.891 249V211.154H177.595L177.21 220.625L177.672 221.742V249H165.891ZM229.139 249.924C226.136 249.924 223.428 249.655 221.016 249.116C218.603 248.602 216.537 247.999 214.817 247.306L213.816 237.411C215.793 238.233 217.974 238.977 220.361 239.644C222.774 240.286 225.379 240.607 228.177 240.607C230.41 240.607 231.988 240.376 232.912 239.914C233.862 239.426 234.337 238.682 234.337 237.681V237.527C234.337 236.834 234.093 236.269 233.605 235.833C233.143 235.371 232.322 234.96 231.141 234.601C229.986 234.242 228.356 233.818 226.252 233.33C223.095 232.586 220.592 231.713 218.744 230.712C216.896 229.686 215.574 228.441 214.779 226.978C214.009 225.489 213.624 223.731 213.624 221.703V221.395C213.624 217.648 214.958 214.85 217.628 213.002C220.297 211.129 224.224 210.192 229.409 210.192C232.335 210.192 234.966 210.461 237.301 211C239.637 211.539 241.6 212.181 243.192 212.925L244.193 222.127C242.345 221.306 240.279 220.625 237.994 220.086C235.736 219.547 233.361 219.278 230.872 219.278C229.357 219.278 228.164 219.381 227.291 219.586C226.444 219.791 225.841 220.086 225.482 220.471C225.148 220.856 224.981 221.331 224.981 221.896V222.011C224.981 222.627 225.187 223.154 225.597 223.59C226.008 224.026 226.752 224.437 227.83 224.822C228.934 225.207 230.512 225.643 232.566 226.131C235.748 226.824 238.315 227.62 240.266 228.518C242.216 229.391 243.641 230.533 244.539 231.944C245.438 233.33 245.887 235.178 245.887 237.488V237.835C245.887 241.916 244.514 244.957 241.767 246.959C239.021 248.936 234.812 249.924 229.139 249.924ZM268.826 211.154V233.407C268.826 234.793 269.006 236 269.365 237.026C269.724 238.027 270.328 238.81 271.175 239.375C272.022 239.914 273.177 240.183 274.64 240.183C275.872 240.183 276.937 239.965 277.835 239.529C278.759 239.093 279.529 238.502 280.145 237.758C280.787 237.014 281.262 236.192 281.57 235.294L283.379 240.799H281.377C280.966 242.493 280.286 244.033 279.337 245.419C278.413 246.805 277.129 247.896 275.487 248.692C273.87 249.488 271.791 249.886 269.25 249.886C266.452 249.886 264.142 249.347 262.32 248.268C260.523 247.165 259.188 245.535 258.316 243.379C257.469 241.223 257.045 238.528 257.045 235.294V211.154H268.826ZM293.158 211.154V249H281.454L281.839 239.529L281.377 238.451V211.154H293.158ZM307.203 249V198.141H318.984V249H307.203ZM348.157 249.847C344.794 249.847 342.112 249.347 340.11 248.345C338.134 247.319 336.709 245.792 335.837 243.764C334.964 241.736 334.528 239.234 334.528 236.256V215.12H346.232V234.37C346.232 236.218 346.642 237.578 347.464 238.451C348.311 239.298 349.876 239.721 352.161 239.721C353.418 239.721 354.663 239.58 355.895 239.298C357.127 239.016 358.244 238.656 359.245 238.22L358.244 247.96C356.935 248.525 355.42 248.974 353.701 249.308C352.007 249.667 350.159 249.847 348.157 249.847ZM329.446 220.548V211.308H358.898L357.859 220.548H329.446ZM334.682 212.155L334.643 202.376L346.309 201.26L345.885 212.155H334.682ZM392.519 249L392.865 239.529L392.596 238.951V227.132L392.519 225.592C392.519 223.487 391.903 221.934 390.671 220.933C389.439 219.932 387.373 219.432 384.472 219.432C381.931 219.432 379.519 219.753 377.234 220.394C374.95 221.036 372.794 221.768 370.766 222.589L371.767 213.464C372.974 212.9 374.321 212.374 375.81 211.886C377.324 211.373 378.992 210.962 380.815 210.654C382.637 210.346 384.588 210.192 386.667 210.192C389.978 210.192 392.75 210.577 394.983 211.347C397.216 212.117 399 213.208 400.334 214.619C401.669 216.031 402.631 217.725 403.222 219.701C403.812 221.652 404.107 223.808 404.107 226.169V249H392.519ZM380.468 249.886C376.695 249.886 373.833 248.936 371.883 247.036C369.932 245.137 368.957 242.429 368.957 238.913V237.873C368.957 234.152 370.099 231.405 372.383 229.634C374.693 227.838 378.351 226.619 383.356 225.977L393.52 224.629L394.213 231.713L385.204 233.022C383.381 233.253 382.098 233.677 381.354 234.293C380.609 234.909 380.237 235.82 380.237 237.026V237.296C380.237 238.451 380.609 239.375 381.354 240.068C382.098 240.735 383.292 241.069 384.934 241.069C386.372 241.069 387.604 240.851 388.63 240.414C389.683 239.978 390.542 239.413 391.21 238.72C391.877 238.002 392.378 237.206 392.711 236.333L394.367 241.107H392.442C392.031 242.75 391.389 244.239 390.517 245.573C389.67 246.908 388.438 247.96 386.821 248.73C385.204 249.501 383.086 249.886 380.468 249.886ZM441.941 249V226.747C441.941 225.361 441.761 224.167 441.402 223.166C441.042 222.14 440.439 221.357 439.592 220.818C438.745 220.279 437.59 220.009 436.127 220.009C434.921 220.009 433.856 220.228 432.932 220.664C432.008 221.075 431.225 221.652 430.583 222.396C429.967 223.115 429.505 223.936 429.197 224.86L427.388 219.355H429.39C429.8 217.635 430.468 216.095 431.392 214.735C432.341 213.375 433.638 212.297 435.28 211.501C436.923 210.68 439.002 210.269 441.517 210.269C444.341 210.269 446.651 210.821 448.447 211.924C450.244 213.002 451.566 214.619 452.413 216.775C453.285 218.931 453.722 221.626 453.722 224.86V249H441.941ZM417.609 249V211.154H429.313L428.928 220.625L429.39 221.742V249H417.609ZM483.706 250.001C477.7 250.001 473.247 248.422 470.347 245.265C467.446 242.108 465.996 237.668 465.996 231.944V228.017C465.996 222.396 467.446 218.007 470.347 214.85C473.247 211.693 477.687 210.115 483.668 210.115C485.208 210.115 486.645 210.23 487.98 210.461C489.314 210.667 490.546 210.962 491.676 211.347C492.805 211.732 493.793 212.143 494.64 212.579L495.603 222.319C494.345 221.601 492.959 221.01 491.445 220.548C489.93 220.061 488.223 219.817 486.324 219.817C483.347 219.817 481.191 220.536 479.856 221.973C478.521 223.41 477.854 225.489 477.854 228.21V231.482C477.854 234.254 478.56 236.385 479.972 237.873C481.383 239.362 483.591 240.106 486.594 240.106C488.467 240.106 490.148 239.888 491.637 239.452C493.151 238.99 494.589 238.4 495.949 237.681L495.025 247.46C493.69 248.179 492.048 248.782 490.097 249.27C488.146 249.757 486.016 250.001 483.706 250.001ZM529.543 239.567L523.229 242.301L531.738 211.154H543.788L528.35 262.244H516.569L522.459 242.994L528.003 247.383H514.952L504.711 211.154H516.838L523.383 239.567H529.543ZM589.213 250.04C586.929 250.04 584.785 249.886 582.783 249.578C580.807 249.295 578.998 248.923 577.355 248.461C575.738 247.973 574.313 247.473 573.081 246.959L572.042 235.871C574.07 236.821 576.469 237.707 579.241 238.528C582.013 239.324 584.952 239.721 588.058 239.721C591.061 239.721 593.191 239.349 594.449 238.605C595.732 237.835 596.374 236.641 596.374 235.024V234.755C596.374 233.677 596.079 232.804 595.488 232.137C594.924 231.444 593.961 230.815 592.601 230.25C591.266 229.66 589.457 229.031 587.172 228.364C583.733 227.337 580.858 226.195 578.548 224.938C576.264 223.68 574.557 222.114 573.428 220.24C572.299 218.341 571.734 215.941 571.734 213.041V212.54C571.734 208.074 573.248 204.661 576.277 202.299C579.331 199.938 583.81 198.757 589.713 198.757C593.255 198.757 596.31 199.065 598.876 199.681C601.469 200.297 603.663 201.029 605.46 201.876L606.499 212.194C604.523 211.244 602.277 210.449 599.762 209.807C597.272 209.14 594.603 208.806 591.754 208.806C589.752 208.806 588.173 208.973 587.018 209.306C585.889 209.64 585.093 210.128 584.631 210.769C584.169 211.385 583.938 212.143 583.938 213.041V213.195C583.938 214.119 584.195 214.927 584.708 215.62C585.247 216.313 586.197 216.981 587.557 217.622C588.943 218.264 590.907 218.957 593.448 219.701C596.862 220.702 599.685 221.78 601.918 222.935C604.177 224.065 605.858 225.541 606.961 227.363C608.091 229.16 608.655 231.559 608.655 234.562V235.178C608.655 240.132 607.051 243.854 603.843 246.343C600.635 248.807 595.758 250.04 589.213 250.04ZM639.996 249.963C633.117 249.963 628.035 248.435 624.75 245.381C621.464 242.301 619.822 237.822 619.822 231.944V228.017C619.822 222.217 621.362 217.776 624.442 214.696C627.522 211.591 632 210.038 637.878 210.038C641.831 210.038 645.116 210.718 647.734 212.078C650.378 213.413 652.354 215.325 653.663 217.815C654.998 220.305 655.665 223.295 655.665 226.785V228.056C655.665 229.031 655.614 230.032 655.511 231.059C655.434 232.06 655.319 232.997 655.165 233.869H644.539C644.641 232.381 644.705 230.982 644.731 229.673C644.757 228.338 644.77 227.132 644.77 226.054C644.77 224.488 644.526 223.179 644.038 222.127C643.55 221.049 642.793 220.228 641.767 219.663C640.766 219.098 639.469 218.816 637.878 218.816C635.517 218.816 633.784 219.458 632.681 220.741C631.603 221.999 631.064 223.795 631.064 226.131V229.596L631.141 230.866V233.561C631.141 234.537 631.295 235.461 631.603 236.333C631.936 237.206 632.501 237.976 633.297 238.643C634.118 239.285 635.234 239.798 636.646 240.183C638.083 240.543 639.906 240.722 642.113 240.722C644.449 240.722 646.695 240.504 648.851 240.068C651.007 239.606 653.073 238.99 655.049 238.22L654.087 247.075C652.341 247.973 650.275 248.679 647.888 249.193C645.501 249.706 642.87 249.963 639.996 249.963ZM626.059 233.869V226.593H652.778V233.869H626.059ZM679.749 227.748L676.515 220.587H679.287C679.903 217.456 681.096 215.004 682.867 213.233C684.664 211.437 687.192 210.538 690.452 210.538C691.016 210.538 691.53 210.577 691.992 210.654C692.479 210.731 692.941 210.821 693.378 210.923L693.955 222.82C693.416 222.666 692.787 222.563 692.069 222.512C691.35 222.435 690.619 222.396 689.874 222.396C687.359 222.396 685.241 222.871 683.522 223.821C681.802 224.745 680.544 226.054 679.749 227.748ZM668.199 249V211.154H679.287L678.786 223.243L679.98 223.397V249H668.199ZM722.202 241.3L729.094 211.154H741.183L731.134 249H712.269L702.144 211.154H714.31L721.278 241.3H722.202ZM752.068 249V211.154H763.849V249H752.068ZM757.958 207.574C755.751 207.574 754.147 207.073 753.146 206.072C752.145 205.046 751.644 203.673 751.644 201.953V201.683C751.644 199.964 752.145 198.603 753.146 197.602C754.147 196.601 755.751 196.101 757.958 196.101C760.114 196.101 761.693 196.601 762.694 197.602C763.721 198.603 764.234 199.964 764.234 201.683V201.953C764.234 203.698 763.721 205.071 762.694 206.072C761.693 207.073 760.114 207.574 757.958 207.574ZM794.215 250.001C788.209 250.001 783.755 248.422 780.855 245.265C777.955 242.108 776.505 237.668 776.505 231.944V228.017C776.505 222.396 777.955 218.007 780.855 214.85C783.755 211.693 788.196 210.115 794.176 210.115C795.716 210.115 797.153 210.23 798.488 210.461C799.823 210.667 801.055 210.962 802.184 211.347C803.313 211.732 804.302 212.143 805.149 212.579L806.111 222.319C804.853 221.601 803.467 221.01 801.953 220.548C800.439 220.061 798.732 219.817 796.833 219.817C793.855 219.817 791.699 220.536 790.365 221.973C789.03 223.41 788.363 225.489 788.363 228.21V231.482C788.363 234.254 789.068 236.385 790.48 237.873C791.892 239.362 794.099 240.106 797.102 240.106C798.976 240.106 800.657 239.888 802.146 239.452C803.66 238.99 805.097 238.4 806.458 237.681L805.534 247.46C804.199 248.179 802.556 248.782 800.606 249.27C798.655 249.757 796.525 250.001 794.215 250.001ZM836.676 249.963C829.798 249.963 824.716 248.435 821.43 245.381C818.145 242.301 816.502 237.822 816.502 231.944V228.017C816.502 222.217 818.042 217.776 821.122 214.696C824.202 211.591 828.681 210.038 834.559 210.038C838.512 210.038 841.797 210.718 844.415 212.078C847.059 213.413 849.035 215.325 850.344 217.815C851.679 220.305 852.346 223.295 852.346 226.785V228.056C852.346 229.031 852.295 230.032 852.192 231.059C852.115 232.06 851.999 232.997 851.845 233.869H841.219C841.322 232.381 841.386 230.982 841.412 229.673C841.438 228.338 841.45 227.132 841.45 226.054C841.45 224.488 841.207 223.179 840.719 222.127C840.231 221.049 839.474 220.228 838.447 219.663C837.446 219.098 836.15 218.816 834.559 218.816C832.198 218.816 830.465 219.458 829.361 220.741C828.283 221.999 827.744 223.795 827.744 226.131V229.596L827.821 230.866V233.561C827.821 234.537 827.975 235.461 828.283 236.333C828.617 237.206 829.182 237.976 829.977 238.643C830.799 239.285 831.915 239.798 833.327 240.183C834.764 240.543 836.587 240.722 838.794 240.722C841.13 240.722 843.375 240.504 845.531 240.068C847.687 239.606 849.754 238.99 851.73 238.22L850.767 247.075C849.022 247.973 846.956 248.679 844.569 249.193C842.182 249.706 839.551 249.963 836.676 249.963ZM822.739 233.869V226.593H849.458V233.869H822.739Z" fill="#1F4E6B"/>
</svg>
