<svg width="927" height="356" viewBox="0 0 927 356" fill="none" xmlns="http://www.w3.org/2000/svg">
<path d="M188.006 185L182.206 165.6H134.006L128.206 185H83.0062L133.206 47.4H184.606L234.806 185H188.006ZM143.206 134.8H173.006L158.606 85.8H157.806L143.206 134.8Z" fill="#1F4E6B"/>
<path d="M433.991 82.6V185H389.791V82.6H344.591V47.4H478.991V82.6H433.991Z" fill="#1F4E6B"/>
<path d="M801.319 185L743.519 118.2V185H702.919V47.4H741.519L799.319 115.2V47.4H839.919V185H801.319Z" fill="#1F4E6B"/>
<path d="M300.867 187.73C284.487 187.73 272.342 183.425 264.432 174.815C256.522 166.205 252.567 154.095 252.567 138.485V127.775C252.567 112.445 256.522 100.475 264.432 91.865C272.342 83.255 284.452 78.95 300.762 78.95C304.962 78.95 308.882 79.265 312.522 79.895C316.162 80.455 319.522 81.26 322.602 82.31C325.682 83.36 328.377 84.48 330.687 85.67L333.312 112.235C329.882 110.275 326.102 108.665 321.972 107.405C317.842 106.075 313.187 105.41 308.007 105.41C299.887 105.41 294.007 107.37 290.367 111.29C286.727 115.21 284.907 120.88 284.907 128.3V137.225C284.907 144.785 286.832 150.595 290.682 154.655C294.532 158.715 300.552 160.745 308.742 160.745C313.852 160.745 318.437 160.15 322.497 158.96C326.627 157.7 330.547 156.09 334.257 154.13L331.737 180.8C328.097 182.76 323.617 184.405 318.297 185.735C312.977 187.065 307.167 187.73 300.867 187.73Z" fill="#1F4E6B"/>
<path d="M506.544 185V83.004H535.526V185H506.544ZM506.544 52.388H535.526V72.598H506.544V52.388ZM630.555 185.774C611.864 185.774 598.534 181.273 590.565 172.272C582.653 163.271 578.697 150.399 578.697 133.658C578.697 116.859 582.653 104.045 590.565 95.216C598.534 86.3293 611.864 81.886 630.555 81.886C649.246 81.886 662.547 86.3293 670.459 95.216C678.371 104.045 682.327 116.859 682.327 133.658C682.327 150.399 678.371 163.271 670.459 172.272C662.547 181.273 649.246 185.774 630.555 185.774ZM630.555 166.166C637.263 166.166 642.738 164.073 646.981 159.888C651.281 155.645 653.431 146.931 653.431 133.744C653.431 120.557 651.281 111.9 646.981 107.772C642.738 103.587 637.263 101.494 630.555 101.494C623.847 101.494 618.343 103.587 614.043 107.772C609.743 111.9 607.593 120.557 607.593 133.744C607.593 146.931 609.743 155.645 614.043 159.888C618.343 164.073 623.847 166.166 630.555 166.166Z" fill="#1F4E6B"/>
<path d="M112.696 233.758V243.46C110.232 243.973 107.82 244.358 105.458 244.615C103.097 244.872 100.299 245 97.0653 245C92.9073 245 89.391 244.641 86.5163 243.922C83.693 243.203 81.4087 241.946 79.6633 240.149C77.9693 238.301 76.7373 235.709 75.9673 232.372C75.1973 229.035 74.8123 224.749 74.8123 219.513C74.8123 214.482 75.1973 210.35 75.9673 207.116C76.7373 203.882 77.9693 201.392 79.6633 199.647C81.4087 197.85 83.693 196.618 86.5163 195.951C89.391 195.232 92.9073 194.873 97.0653 194.873C100.299 194.873 103.097 195.001 105.458 195.258C107.82 195.463 110.232 195.848 112.696 196.413V206.423L112.465 206.577C110.309 206.064 108.23 205.704 106.228 205.499C104.226 205.242 101.762 205.114 98.8363 205.114C96.475 205.114 94.5243 205.294 92.9843 205.653C91.4957 205.961 90.315 206.603 89.4423 207.578C88.5697 208.553 87.9537 209.991 87.5943 211.89C87.2863 213.789 87.1323 216.33 87.1323 219.513C87.1323 222.85 87.2863 225.545 87.5943 227.598C87.9537 229.6 88.5697 231.114 89.4423 232.141C90.315 233.168 91.4957 233.861 92.9843 234.22C94.5243 234.579 96.475 234.759 98.8363 234.759C101.711 234.759 104.149 234.682 106.151 234.528C108.205 234.323 110.258 233.963 112.311 233.45L112.696 233.758ZM120.369 225.827C120.369 218.948 121.832 213.995 124.758 210.966C127.684 207.937 132.637 206.423 139.619 206.423C144.29 206.423 148.037 207.09 150.861 208.425C153.684 209.76 155.712 211.864 156.944 214.739C158.227 217.562 158.869 221.258 158.869 225.827C158.869 230.344 158.227 234.015 156.944 236.838C155.712 239.661 153.684 241.74 150.861 243.075C148.037 244.358 144.29 245 139.619 245C132.637 245 127.684 243.511 124.758 240.534C121.832 237.505 120.369 232.603 120.369 225.827ZM139.619 234.451C142.596 234.451 144.598 233.809 145.625 232.526C146.703 231.191 147.242 228.881 147.242 225.596C147.242 222.465 146.703 220.232 145.625 218.897C144.598 217.511 142.596 216.818 139.619 216.818C136.744 216.818 134.742 217.511 133.613 218.897C132.535 220.232 131.996 222.465 131.996 225.596C131.996 228.881 132.535 231.191 133.613 232.526C134.742 233.809 136.744 234.451 139.619 234.451ZM181.569 244.307H169.249V206.808H180.953L181.569 213.661H181.8C182.518 211.351 183.802 209.58 185.65 208.348C187.498 207.065 190.064 206.423 193.35 206.423C197.816 206.423 201.101 207.681 203.206 210.196C205.362 212.711 206.44 217.075 206.44 223.286V244.307H194.12L194.043 225.673C194.043 222.798 193.606 220.745 192.734 219.513C191.861 218.281 190.218 217.665 187.806 217.665C185.547 217.665 183.956 218.23 183.032 219.359C182.108 220.437 181.62 222.311 181.569 224.98V244.307ZM217.048 233.681C221.052 234.81 225.493 235.375 230.369 235.375C232.731 235.375 234.502 235.298 235.682 235.144C236.863 234.99 237.659 234.733 238.069 234.374C238.48 234.015 238.685 233.527 238.685 232.911C238.685 232.038 238.352 231.499 237.684 231.294C237.068 231.089 235.811 230.806 233.911 230.447L227.828 229.292C223.927 228.522 221.104 227.316 219.358 225.673C217.664 223.979 216.817 221.464 216.817 218.127C216.817 213.61 218.152 210.53 220.821 208.887C223.542 207.244 227.854 206.423 233.757 206.423C237.299 206.423 240.405 206.628 243.074 207.039C245.795 207.398 248.054 207.86 249.85 208.425L249.696 217.742L249.465 217.973C245.307 216.638 240.764 215.971 235.836 215.971C233.424 215.971 231.73 216.151 230.754 216.51C229.83 216.818 229.368 217.46 229.368 218.435C229.368 218.948 229.497 219.359 229.753 219.667C230.061 219.975 230.729 220.283 231.755 220.591C232.782 220.848 234.399 221.181 236.606 221.592L242.227 222.67C245.359 223.337 247.669 224.441 249.157 225.981C250.646 227.521 251.39 229.959 251.39 233.296C251.39 236.222 250.851 238.558 249.773 240.303C248.695 241.997 246.873 243.203 244.306 243.922C241.791 244.641 238.3 245 233.834 245C230.446 245 227.315 244.846 224.44 244.538C221.617 244.179 219.076 243.768 216.817 243.306V233.835L217.048 233.681ZM274.089 245C269.366 245 266.004 243.742 264.002 241.227C262 238.712 260.999 235.118 260.999 230.447V206.808H273.319L273.396 227.444C273.396 229.754 273.807 231.397 274.628 232.372C275.449 233.296 277.118 233.758 279.633 233.758C282.046 233.758 283.663 233.347 284.484 232.526C285.357 231.653 285.819 230.19 285.87 228.137V206.808H298.19V244.307H286.486L285.87 240.072H285.639C284.972 241.561 283.611 242.767 281.558 243.691C279.505 244.564 277.015 245 274.089 245ZM323.582 244.307H311.262V192.486H323.582V244.307ZM337.464 233.065V216.895H332.844V206.885H338.619L340.929 197.722H349.784V206.885H358.177V216.895H349.784V230.37C349.784 231.807 349.963 232.808 350.323 233.373C350.682 233.886 351.503 234.143 352.787 234.143C353.608 234.143 354.481 234.117 355.405 234.066C356.329 233.963 357.253 233.861 358.177 233.758L358.408 233.912V243.922C355.944 244.641 352.684 245 348.629 245C344.573 245 341.699 244.076 340.005 242.228C338.311 240.38 337.464 237.326 337.464 233.065ZM383.438 206.423C388.366 206.423 392.344 206.936 395.373 207.963C398.402 208.99 400.609 210.889 401.995 213.661C403.432 216.382 404.151 220.334 404.151 225.519V244.307H392.986L392.601 240.765H392.37C391.395 242.048 389.88 243.075 387.827 243.845C385.774 244.615 383.104 245 379.819 245C370.938 245 366.498 240.842 366.498 232.526C366.498 228.984 367.653 226.212 369.963 224.21C372.324 222.157 376.02 221.13 381.051 221.13H392.447C392.088 218.974 391.164 217.537 389.675 216.818C388.186 216.048 385.645 215.663 382.052 215.663C379.793 215.663 377.56 215.843 375.353 216.202C373.197 216.51 371.298 216.869 369.655 217.28L369.424 217.126L369.501 208.194C370.528 207.886 371.837 207.604 373.428 207.347C375.019 207.039 376.688 206.808 378.433 206.654C380.23 206.5 381.898 206.423 383.438 206.423ZM382.976 235.914C386.159 235.914 388.546 235.529 390.137 234.759C391.728 233.938 392.55 232.654 392.601 230.909V228.984H383.9C381.641 228.984 380.05 229.318 379.126 229.985C378.253 230.601 377.817 231.448 377.817 232.526C377.817 233.809 378.279 234.708 379.203 235.221C380.127 235.683 381.385 235.914 382.976 235.914ZM428.375 244.307H416.055V206.808H427.759L428.375 213.661H428.606C429.324 211.351 430.608 209.58 432.456 208.348C434.304 207.065 436.87 206.423 440.156 206.423C444.622 206.423 447.907 207.681 450.012 210.196C452.168 212.711 453.246 217.075 453.246 223.286V244.307H440.926L440.849 225.673C440.849 222.798 440.412 220.745 439.54 219.513C438.667 218.281 437.024 217.665 434.612 217.665C432.353 217.665 430.762 218.23 429.838 219.359C428.914 220.437 428.426 222.311 428.375 224.98V244.307ZM494.731 233.45V243.46C493.448 243.973 491.549 244.358 489.033 244.615C486.518 244.872 483.849 245 481.025 245C476.97 245 473.582 244.435 470.861 243.306C468.192 242.177 466.19 240.226 464.855 237.454C463.572 234.682 462.905 230.832 462.853 225.904C462.853 220.822 463.546 216.869 464.932 214.046C466.37 211.223 468.449 209.246 471.169 208.117C473.89 206.988 477.15 206.423 480.948 206.423C483.207 206.423 485.594 206.577 488.109 206.885C490.625 207.193 492.678 207.604 494.269 208.117L494.346 218.435L494.115 218.589C492.575 218.281 490.933 218.05 489.187 217.896C487.442 217.742 485.722 217.665 484.028 217.665C480.589 217.665 478.202 218.307 476.867 219.59C475.533 220.873 474.865 223.029 474.865 226.058C474.865 228.368 475.148 230.088 475.712 231.217C476.277 232.346 477.227 233.091 478.561 233.45C479.896 233.809 481.718 233.989 484.028 233.989C485.825 233.989 487.545 233.912 489.187 233.758C490.83 233.604 492.575 233.424 494.423 233.219L494.731 233.45ZM509.804 258.475L515.733 244.384L500.872 206.962V206.808H514.655C516.092 210.863 517.427 214.944 518.659 219.051C519.942 223.158 520.969 227.367 521.739 231.679H521.893C522.663 227.418 523.638 223.235 524.819 219.128C526.051 215.021 527.437 210.915 528.977 206.808H542.221V207.039L522.432 258.629H509.804V258.475ZM576.402 231.756C578.661 232.526 581.125 233.142 583.794 233.604C586.515 234.015 589.21 234.22 591.879 234.22C595.524 234.22 598.219 234.066 599.964 233.758C601.761 233.399 602.942 232.86 603.506 232.141C604.071 231.422 604.353 230.498 604.353 229.369C604.353 228.394 604.148 227.624 603.737 227.059C603.327 226.494 602.531 226.058 601.35 225.75C600.17 225.391 598.424 225.108 596.114 224.903L591.032 224.441C587.234 224.082 584.231 223.286 582.023 222.054C579.867 220.822 578.327 219.179 577.403 217.126C576.531 215.021 576.094 212.506 576.094 209.58C576.094 206.089 576.787 203.266 578.173 201.11C579.611 198.954 581.921 197.388 585.103 196.413C588.286 195.386 592.521 194.873 597.808 194.873C604.687 194.873 610.359 195.771 614.825 197.568L614.594 208.04L614.363 208.348C609.281 206.551 603.968 205.653 598.424 205.653C595.755 205.653 593.702 205.807 592.264 206.115C590.827 206.372 589.826 206.808 589.261 207.424C588.697 208.04 588.414 208.913 588.414 210.042C588.414 211.171 588.594 212.018 588.953 212.583C589.364 213.148 590.16 213.584 591.34 213.892C592.521 214.149 594.241 214.405 596.499 214.662L601.35 215.201C605.457 215.663 608.614 216.484 610.821 217.665C613.029 218.846 614.543 220.437 615.364 222.439C616.237 224.39 616.673 226.777 616.673 229.6C616.673 233.039 615.929 235.914 614.44 238.224C613.003 240.483 610.642 242.177 607.356 243.306C604.071 244.435 599.682 245 594.189 245C590.596 245 587.362 244.82 584.487 244.461C581.613 244.05 578.815 243.511 576.094 242.844V231.987L576.402 231.756ZM661.289 243.075C659.852 243.588 657.85 244.05 655.283 244.461C652.768 244.82 649.765 245 646.274 245C641.859 245 638.086 244.435 634.955 243.306C631.875 242.125 629.539 240.149 627.948 237.377C626.357 234.554 625.561 230.652 625.561 225.673C625.561 218.897 627.101 213.995 630.181 210.966C633.312 207.937 638.138 206.423 644.657 206.423C649.328 206.423 652.999 207.09 655.668 208.425C658.389 209.76 660.314 211.659 661.443 214.123C662.624 216.536 663.214 219.41 663.214 222.747C663.214 223.722 663.163 224.775 663.06 225.904C663.009 227.033 662.88 228.137 662.675 229.215L662.367 229.523H637.034C637.393 231.782 638.446 233.27 640.191 233.989C641.988 234.708 644.888 235.067 648.892 235.067C651.561 235.067 653.769 235.016 655.514 234.913C657.311 234.759 659.133 234.554 660.981 234.297L661.289 234.528V243.075ZM652.511 221.438C652.511 220.206 652.306 219.154 651.895 218.281C651.536 217.357 650.791 216.664 649.662 216.202C648.533 215.689 646.864 215.432 644.657 215.432C641.423 215.432 639.293 215.997 638.266 217.126C637.291 218.204 636.803 219.641 636.803 221.438H652.511ZM685.934 244.307H673.614V206.808H683.624L684.625 214.508H684.856C685.318 211.633 686.421 209.58 688.167 208.348C689.912 207.065 692.504 206.423 695.944 206.423C697.33 206.423 698.587 206.5 699.717 206.654C700.846 206.757 701.796 206.859 702.566 206.962V218.974L702.412 219.128C701.59 218.923 700.641 218.743 699.563 218.589C698.536 218.435 697.355 218.358 696.021 218.358C694.121 218.358 692.402 218.666 690.862 219.282C689.373 219.898 688.192 221.104 687.32 222.901C686.498 224.646 686.088 227.264 686.088 230.755L685.934 244.307ZM747.171 207.039L734.928 244.307H719.528L707.978 206.962V206.808H721.838C722.916 210.812 723.917 215.15 724.841 219.821C725.816 224.492 726.689 228.984 727.459 233.296H727.767C728.537 228.984 729.384 224.492 730.308 219.821C731.283 215.15 732.31 210.812 733.388 206.808H747.171V207.039ZM768.061 192.871C768.215 194.719 768.292 196.259 768.292 197.491C768.292 198.21 768.266 198.954 768.215 199.724C768.215 200.443 768.163 201.264 768.061 202.188C766.983 202.393 765.93 202.547 764.904 202.65C763.877 202.753 762.85 202.804 761.824 202.804C760.848 202.804 759.847 202.753 758.821 202.65C757.845 202.547 756.844 202.393 755.818 202.188C755.715 201.315 755.638 200.52 755.587 199.801C755.535 199.031 755.51 198.287 755.51 197.568C755.51 196.901 755.535 196.182 755.587 195.412C755.638 194.642 755.715 193.795 755.818 192.871C756.844 192.614 757.871 192.46 758.898 192.409C759.976 192.306 761.028 192.255 762.055 192.255C763.03 192.255 764.005 192.306 764.981 192.409C766.007 192.46 767.034 192.614 768.061 192.871ZM768.061 244.307H755.741V206.808H768.061V244.307ZM809.619 233.45V243.46C808.336 243.973 806.436 244.358 803.921 244.615C801.406 244.872 798.736 245 795.913 245C791.858 245 788.47 244.435 785.749 243.306C783.08 242.177 781.078 240.226 779.743 237.454C778.46 234.682 777.792 230.832 777.741 225.904C777.741 220.822 778.434 216.869 779.82 214.046C781.257 211.223 783.336 209.246 786.057 208.117C788.778 206.988 792.037 206.423 795.836 206.423C798.095 206.423 800.482 206.577 802.997 206.885C805.512 207.193 807.566 207.604 809.157 208.117L809.234 218.435L809.003 218.589C807.463 218.281 805.82 218.05 804.075 217.896C802.33 217.742 800.61 217.665 798.916 217.665C795.477 217.665 793.09 218.307 791.755 219.59C790.42 220.873 789.753 223.029 789.753 226.058C789.753 228.368 790.035 230.088 790.6 231.217C791.165 232.346 792.114 233.091 793.449 233.45C794.784 233.809 796.606 233.989 798.916 233.989C800.713 233.989 802.432 233.912 804.075 233.758C805.718 233.604 807.463 233.424 809.311 233.219L809.619 233.45ZM853.413 243.075C851.976 243.588 849.974 244.05 847.407 244.461C844.892 244.82 841.889 245 838.398 245C833.983 245 830.21 244.435 827.079 243.306C823.999 242.125 821.663 240.149 820.072 237.377C818.481 234.554 817.685 230.652 817.685 225.673C817.685 218.897 819.225 213.995 822.305 210.966C825.436 207.937 830.262 206.423 836.781 206.423C841.452 206.423 845.123 207.09 847.792 208.425C850.513 209.76 852.438 211.659 853.567 214.123C854.748 216.536 855.338 219.41 855.338 222.747C855.338 223.722 855.287 224.775 855.184 225.904C855.133 227.033 855.004 228.137 854.799 229.215L854.491 229.523H829.158C829.517 231.782 830.57 233.27 832.315 233.989C834.112 234.708 837.012 235.067 841.016 235.067C843.685 235.067 845.893 235.016 847.638 234.913C849.435 234.759 851.257 234.554 853.105 234.297L853.413 234.528V243.075ZM844.635 221.438C844.635 220.206 844.43 219.154 844.019 218.281C843.66 217.357 842.915 216.664 841.786 216.202C840.657 215.689 838.988 215.432 836.781 215.432C833.547 215.432 831.417 215.997 830.39 217.126C829.415 218.204 828.927 219.641 828.927 221.438H844.635Z" fill="#1F4E6B"/>
</svg>
