<svg width="908" height="356" viewBox="0 0 908 356" fill="none" xmlns="http://www.w3.org/2000/svg">
<path d="M115.718 204L95.7179 201L133.118 68L181.518 71L207.518 201L189.518 204L175.718 170.8L122.518 175.2L115.718 204ZM171.318 160.2L143.518 93.2H141.918L126.118 159.8L171.318 160.2Z" fill="#1F4E6B"/>
<path d="M389.809 203.8L379.809 88.6L351.809 91.4L350.609 70.8L452.809 68L452.209 81.4L424.209 84.2L411.809 201.8L389.809 203.8Z" fill="#1F4E6B"/>
<path d="M792.77 210.201L727.97 103.001H726.37L726.97 207.201L706.97 208.201L712.37 77.2008L760.77 74.2008L795.77 174.001H797.37L799.37 76.2008L819.37 75.2008L810.77 207.201L792.77 210.201Z" fill="#1F4E6B"/>
<path d="M313.562 148.75C312.312 147.25 310.562 145.875 308.312 144.625C306.146 143.292 303.229 142.5 299.562 142.25V130.25C304.146 130.5 308.062 131.5 311.312 133.25C314.646 134.917 317.646 137.375 320.312 140.625L313.562 148.75ZM299.562 189.125C302.562 188.792 305.104 188.083 307.188 187C309.354 185.833 311.396 184.5 313.312 183L318.938 191.125C316.354 194.375 313.562 196.875 310.562 198.625C307.562 200.292 303.896 201.25 299.562 201.5V189.125ZM264.688 165.75C264.688 161 265.354 156.542 266.688 152.375C268.104 148.208 270.146 144.542 272.812 141.375C275.479 138.208 278.604 135.667 282.188 133.75C285.854 131.75 289.938 130.583 294.438 130.25V142.375C290.271 143.292 286.938 145.875 284.438 150.125C281.938 154.292 280.688 159.375 280.688 165.375C280.688 168.458 280.979 171.375 281.562 174.125C282.229 176.792 283.146 179.167 284.312 181.25C285.479 183.333 286.896 185.083 288.562 186.5C290.312 187.917 292.271 188.792 294.438 189.125V201.5C289.854 201.25 285.729 200.167 282.062 198.25C278.396 196.25 275.271 193.667 272.688 190.5C270.104 187.25 268.104 183.5 266.688 179.25C265.354 175 264.688 170.5 264.688 165.75Z" fill="#1F4E6B"/>
<path d="M514.312 203H499.062V132.5H514.312V203ZM515.688 110C515.688 112.5 514.812 114.625 513.062 116.375C511.312 118.042 509.188 118.875 506.688 118.875C504.188 118.875 502.062 118 500.312 116.25C498.646 114.5 497.812 112.417 497.812 110C497.812 107.5 498.688 105.375 500.438 103.625C502.188 101.875 504.271 101 506.688 101C509.188 101 511.312 101.875 513.062 103.625C514.812 105.375 515.688 107.5 515.688 110ZM618.688 132.125C623.271 132.375 627.438 133.5 631.188 135.5C634.938 137.417 638.062 140 640.562 143.25C643.146 146.417 645.146 150.125 646.562 154.375C647.979 158.625 648.688 163.167 648.688 168C648.688 172.833 647.938 177.375 646.438 181.625C645.021 185.792 643.021 189.458 640.438 192.625C637.854 195.708 634.688 198.208 630.938 200.125C627.188 202.042 623.104 203.167 618.688 203.5V191.5C622.854 190.583 626.229 187.958 628.812 183.625C631.479 179.292 632.812 174.083 632.812 168C632.812 164.917 632.479 162.042 631.812 159.375C631.229 156.625 630.312 154.167 629.062 152C627.812 149.833 626.312 148.042 624.562 146.625C622.812 145.208 620.854 144.292 618.688 143.875V132.125ZM583.812 167.75C583.812 162.917 584.521 158.417 585.938 154.25C587.354 150.083 589.354 146.458 591.938 143.375C594.604 140.208 597.771 137.667 601.438 135.75C605.104 133.833 609.146 132.667 613.562 132.25V143.875C609.396 144.792 606.062 147.417 603.562 151.75C601.062 156.083 599.812 161.292 599.812 167.375C599.812 170.458 600.104 173.375 600.688 176.125C601.354 178.875 602.271 181.333 603.438 183.5C604.604 185.667 606.021 187.458 607.688 188.875C609.438 190.292 611.396 191.167 613.562 191.5V203.5C608.979 203.167 604.854 202.042 601.188 200.125C597.521 198.125 594.396 195.542 591.812 192.375C589.229 189.208 587.229 185.5 585.812 181.25C584.479 177 583.812 172.5 583.812 167.75Z" fill="#1F4E6B"/>
<path d="M127.909 236.75H117.954C117.772 235.462 117.401 234.318 116.84 233.318C116.28 232.303 115.56 231.439 114.681 230.727C113.803 230.015 112.787 229.47 111.636 229.091C110.5 228.712 109.265 228.523 107.931 228.523C105.522 228.523 103.424 229.121 101.636 230.318C99.848 231.5 98.4617 233.227 97.4768 235.5C96.492 237.758 95.9996 240.5 95.9996 243.727C95.9996 247.045 96.492 249.833 97.4768 252.091C98.4768 254.348 99.8708 256.053 101.659 257.205C103.447 258.356 105.515 258.932 107.863 258.932C109.181 258.932 110.401 258.758 111.522 258.409C112.659 258.061 113.666 257.553 114.545 256.886C115.424 256.205 116.151 255.379 116.727 254.409C117.318 253.439 117.727 252.333 117.954 251.091L127.909 251.136C127.651 253.273 127.007 255.333 125.977 257.318C124.962 259.288 123.59 261.053 121.863 262.614C120.151 264.159 118.106 265.386 115.727 266.295C113.363 267.189 110.689 267.636 107.704 267.636C103.553 267.636 99.8405 266.697 96.5677 264.818C93.3102 262.939 90.7344 260.22 88.8405 256.659C86.9617 253.098 86.0223 248.788 86.0223 243.727C86.0223 238.652 86.9768 234.333 88.8859 230.773C90.795 227.212 93.3859 224.5 96.6587 222.636C99.9314 220.758 103.613 219.818 107.704 219.818C110.401 219.818 112.901 220.197 115.204 220.955C117.522 221.712 119.575 222.818 121.363 224.273C123.151 225.712 124.606 227.477 125.727 229.568C126.863 231.659 127.59 234.053 127.909 236.75ZM155.676 267.682C152.146 267.682 149.093 266.932 146.517 265.432C143.957 263.917 141.979 261.811 140.585 259.114C139.192 256.402 138.495 253.258 138.495 249.682C138.495 246.076 139.192 242.924 140.585 240.227C141.979 237.515 143.957 235.409 146.517 233.909C149.093 232.394 152.146 231.636 155.676 231.636C159.207 231.636 162.252 232.394 164.813 233.909C167.388 235.409 169.373 237.515 170.767 240.227C172.161 242.924 172.858 246.076 172.858 249.682C172.858 253.258 172.161 256.402 170.767 259.114C169.373 261.811 167.388 263.917 164.813 265.432C162.252 266.932 159.207 267.682 155.676 267.682ZM155.722 260.182C157.328 260.182 158.669 259.727 159.745 258.818C160.82 257.894 161.631 256.636 162.176 255.045C162.737 253.455 163.017 251.644 163.017 249.614C163.017 247.583 162.737 245.773 162.176 244.182C161.631 242.591 160.82 241.333 159.745 240.409C158.669 239.485 157.328 239.023 155.722 239.023C154.101 239.023 152.737 239.485 151.631 240.409C150.54 241.333 149.714 242.591 149.154 244.182C148.608 245.773 148.335 247.583 148.335 249.614C148.335 251.644 148.608 253.455 149.154 255.045C149.714 256.636 150.54 257.894 151.631 258.818C152.737 259.727 154.101 260.182 155.722 260.182ZM193.955 246.818V267H184.274V232.091H193.501V238.25H193.91C194.683 236.22 195.978 234.614 197.796 233.432C199.615 232.235 201.819 231.636 204.41 231.636C206.834 231.636 208.948 232.167 210.751 233.227C212.554 234.288 213.955 235.803 214.955 237.773C215.955 239.727 216.455 242.061 216.455 244.773V267H206.774V246.5C206.789 244.364 206.243 242.697 205.137 241.5C204.031 240.288 202.508 239.682 200.569 239.682C199.266 239.682 198.115 239.962 197.115 240.523C196.13 241.083 195.357 241.902 194.796 242.977C194.251 244.038 193.971 245.318 193.955 246.818ZM258.252 242.045L249.388 242.591C249.236 241.833 248.911 241.152 248.411 240.545C247.911 239.924 247.252 239.432 246.433 239.068C245.63 238.689 244.668 238.5 243.547 238.5C242.047 238.5 240.782 238.818 239.752 239.455C238.721 240.076 238.206 240.909 238.206 241.955C238.206 242.788 238.539 243.492 239.206 244.068C239.873 244.644 241.017 245.106 242.638 245.455L248.956 246.727C252.35 247.424 254.88 248.545 256.547 250.091C258.214 251.636 259.047 253.667 259.047 256.182C259.047 258.47 258.373 260.477 257.024 262.205C255.691 263.932 253.858 265.28 251.524 266.25C249.206 267.205 246.532 267.682 243.502 267.682C238.88 267.682 235.199 266.72 232.456 264.795C229.729 262.856 228.13 260.22 227.661 256.886L237.183 256.386C237.471 257.795 238.168 258.871 239.274 259.614C240.38 260.341 241.797 260.705 243.524 260.705C245.221 260.705 246.585 260.379 247.615 259.727C248.661 259.061 249.191 258.205 249.206 257.159C249.191 256.28 248.82 255.561 248.093 255C247.365 254.424 246.244 253.985 244.729 253.682L238.683 252.477C235.274 251.795 232.736 250.614 231.07 248.932C229.418 247.25 228.593 245.106 228.593 242.5C228.593 240.258 229.199 238.326 230.411 236.705C231.638 235.083 233.358 233.833 235.57 232.955C237.797 232.076 240.403 231.636 243.388 231.636C247.797 231.636 251.267 232.568 253.797 234.432C256.343 236.295 257.827 238.833 258.252 242.045ZM292.65 252.136V232.091H302.332V267H293.036V260.659H292.673C291.885 262.705 290.574 264.348 288.741 265.591C286.923 266.833 284.703 267.455 282.082 267.455C279.749 267.455 277.695 266.924 275.923 265.864C274.15 264.803 272.764 263.295 271.764 261.341C270.779 259.386 270.279 257.045 270.264 254.318V232.091H279.945V252.591C279.961 254.652 280.514 256.28 281.605 257.477C282.695 258.674 284.158 259.273 285.991 259.273C287.158 259.273 288.249 259.008 289.264 258.477C290.279 257.932 291.097 257.129 291.718 256.068C292.355 255.008 292.665 253.697 292.65 252.136ZM324.878 220.455V267H315.196V220.455H324.878ZM356.322 232.091V239.364H335.299V232.091H356.322ZM340.072 223.727H349.754V256.273C349.754 257.167 349.89 257.864 350.163 258.364C350.435 258.848 350.814 259.189 351.299 259.386C351.799 259.583 352.375 259.682 353.026 259.682C353.481 259.682 353.935 259.644 354.39 259.568C354.845 259.477 355.193 259.409 355.435 259.364L356.958 266.568C356.473 266.72 355.792 266.894 354.913 267.091C354.034 267.303 352.966 267.432 351.708 267.477C349.375 267.568 347.329 267.258 345.572 266.545C343.829 265.833 342.473 264.727 341.504 263.227C340.534 261.727 340.057 259.833 340.072 257.545V223.727ZM377.703 267.659C375.476 267.659 373.491 267.273 371.749 266.5C370.006 265.712 368.627 264.553 367.612 263.023C366.612 261.477 366.112 259.553 366.112 257.25C366.112 255.311 366.468 253.682 367.18 252.364C367.893 251.045 368.862 249.985 370.09 249.182C371.317 248.379 372.711 247.773 374.271 247.364C375.847 246.955 377.499 246.667 379.226 246.5C381.256 246.288 382.893 246.091 384.135 245.909C385.377 245.712 386.279 245.424 386.84 245.045C387.4 244.667 387.68 244.106 387.68 243.364V243.227C387.68 241.788 387.226 240.674 386.317 239.886C385.423 239.098 384.15 238.705 382.499 238.705C380.756 238.705 379.37 239.091 378.34 239.864C377.309 240.621 376.627 241.576 376.294 242.727L367.34 242C367.794 239.879 368.688 238.045 370.021 236.5C371.355 234.939 373.074 233.742 375.18 232.909C377.302 232.061 379.756 231.636 382.544 231.636C384.483 231.636 386.34 231.864 388.112 232.318C389.9 232.773 391.483 233.477 392.862 234.432C394.256 235.386 395.355 236.614 396.158 238.114C396.961 239.598 397.362 241.379 397.362 243.455V267H388.18V262.159H387.908C387.347 263.25 386.597 264.212 385.658 265.045C384.718 265.864 383.59 266.508 382.271 266.977C380.953 267.432 379.43 267.659 377.703 267.659ZM380.476 260.977C381.9 260.977 383.158 260.697 384.249 260.136C385.34 259.561 386.196 258.788 386.817 257.818C387.438 256.848 387.749 255.75 387.749 254.523V250.818C387.446 251.015 387.029 251.197 386.499 251.364C385.983 251.515 385.4 251.659 384.749 251.795C384.097 251.917 383.446 252.03 382.794 252.136C382.143 252.227 381.552 252.311 381.021 252.386C379.885 252.553 378.893 252.818 378.044 253.182C377.196 253.545 376.537 254.038 376.067 254.659C375.597 255.265 375.362 256.023 375.362 256.932C375.362 258.25 375.84 259.258 376.794 259.955C377.764 260.636 378.991 260.977 380.476 260.977ZM419.675 246.818V267H409.994V232.091H419.221V238.25H419.63C420.403 236.22 421.698 234.614 423.516 233.432C425.335 232.235 427.539 231.636 430.13 231.636C432.554 231.636 434.668 232.167 436.471 233.227C438.274 234.288 439.675 235.803 440.675 237.773C441.675 239.727 442.175 242.061 442.175 244.773V267H432.494V246.5C432.509 244.364 431.963 242.697 430.857 241.5C429.751 240.288 428.228 239.682 426.289 239.682C424.986 239.682 423.835 239.962 422.835 240.523C421.85 241.083 421.077 241.902 420.516 242.977C419.971 244.038 419.691 245.318 419.675 246.818ZM470.699 267.682C467.123 267.682 464.047 266.924 461.472 265.409C458.911 263.879 456.941 261.758 455.562 259.045C454.199 256.333 453.517 253.212 453.517 249.682C453.517 246.106 454.206 242.97 455.585 240.273C456.979 237.561 458.956 235.447 461.517 233.932C464.078 232.402 467.123 231.636 470.653 231.636C473.699 231.636 476.366 232.189 478.653 233.295C480.941 234.402 482.752 235.955 484.085 237.955C485.419 239.955 486.153 242.303 486.29 245H477.153C476.896 243.258 476.214 241.856 475.108 240.795C474.017 239.72 472.585 239.182 470.812 239.182C469.312 239.182 468.002 239.591 466.881 240.409C465.775 241.212 464.911 242.386 464.29 243.932C463.669 245.477 463.358 247.348 463.358 249.545C463.358 251.773 463.661 253.667 464.267 255.227C464.888 256.788 465.759 257.977 466.881 258.795C468.002 259.614 469.312 260.023 470.812 260.023C471.919 260.023 472.911 259.795 473.79 259.341C474.684 258.886 475.419 258.227 475.994 257.364C476.585 256.485 476.972 255.432 477.153 254.205H486.29C486.138 256.871 485.411 259.22 484.108 261.25C482.82 263.265 481.04 264.841 478.767 265.977C476.494 267.114 473.805 267.682 470.699 267.682ZM503.586 280.091C502.359 280.091 501.207 279.992 500.131 279.795C499.071 279.614 498.192 279.379 497.495 279.091L499.677 271.864C500.813 272.212 501.836 272.402 502.745 272.432C503.669 272.462 504.465 272.25 505.131 271.795C505.813 271.341 506.366 270.568 506.79 269.477L507.359 268L494.836 232.091H505.018L512.245 257.727H512.609L519.904 232.091H530.154L516.586 270.773C515.934 272.652 515.048 274.288 513.927 275.682C512.821 277.091 511.419 278.174 509.722 278.932C508.025 279.705 505.98 280.091 503.586 280.091ZM585.593 233.841C585.411 232.008 584.631 230.583 583.252 229.568C581.873 228.553 580.002 228.045 577.638 228.045C576.032 228.045 574.676 228.273 573.57 228.727C572.464 229.167 571.616 229.78 571.025 230.568C570.449 231.356 570.161 232.25 570.161 233.25C570.131 234.083 570.305 234.811 570.684 235.432C571.078 236.053 571.616 236.591 572.297 237.045C572.979 237.485 573.767 237.871 574.661 238.205C575.555 238.523 576.51 238.795 577.525 239.023L581.707 240.023C583.737 240.477 585.601 241.083 587.297 241.841C588.994 242.598 590.464 243.53 591.707 244.636C592.949 245.742 593.911 247.045 594.593 248.545C595.29 250.045 595.646 251.765 595.661 253.705C595.646 256.553 594.919 259.023 593.479 261.114C592.055 263.189 589.994 264.803 587.297 265.955C584.616 267.091 581.381 267.659 577.593 267.659C573.835 267.659 570.563 267.083 567.775 265.932C565.002 264.78 562.835 263.076 561.275 260.818C559.729 258.545 558.919 255.735 558.843 252.386H568.366C568.472 253.947 568.919 255.25 569.707 256.295C570.51 257.326 571.578 258.106 572.911 258.636C574.26 259.152 575.782 259.409 577.479 259.409C579.146 259.409 580.593 259.167 581.82 258.682C583.063 258.197 584.025 257.523 584.707 256.659C585.388 255.795 585.729 254.803 585.729 253.682C585.729 252.636 585.419 251.758 584.797 251.045C584.191 250.333 583.297 249.727 582.116 249.227C580.949 248.727 579.517 248.273 577.82 247.864L572.752 246.591C568.828 245.636 565.729 244.144 563.457 242.114C561.184 240.083 560.055 237.348 560.07 233.909C560.055 231.091 560.805 228.629 562.32 226.523C563.851 224.417 565.949 222.773 568.616 221.591C571.282 220.409 574.313 219.818 577.707 219.818C581.161 219.818 584.176 220.409 586.752 221.591C589.343 222.773 591.358 224.417 592.797 226.523C594.237 228.629 594.979 231.068 595.025 233.841H585.593ZM623.128 267.682C619.537 267.682 616.446 266.955 613.855 265.5C611.279 264.03 609.294 261.955 607.9 259.273C606.506 256.576 605.81 253.386 605.81 249.705C605.81 246.114 606.506 242.962 607.9 240.25C609.294 237.538 611.256 235.424 613.787 233.909C616.332 232.394 619.317 231.636 622.741 231.636C625.044 231.636 627.188 232.008 629.173 232.75C631.173 233.477 632.916 234.576 634.4 236.045C635.9 237.515 637.067 239.364 637.9 241.591C638.734 243.803 639.15 246.394 639.15 249.364V252.023H609.673V246.023H630.037C630.037 244.629 629.734 243.394 629.128 242.318C628.522 241.242 627.681 240.402 626.605 239.795C625.544 239.174 624.31 238.864 622.9 238.864C621.431 238.864 620.128 239.205 618.991 239.886C617.87 240.553 616.991 241.455 616.355 242.591C615.719 243.712 615.393 244.962 615.378 246.341V252.045C615.378 253.773 615.696 255.265 616.332 256.523C616.984 257.78 617.9 258.75 619.082 259.432C620.264 260.114 621.666 260.455 623.287 260.455C624.363 260.455 625.347 260.303 626.241 260C627.135 259.697 627.9 259.242 628.537 258.636C629.173 258.03 629.658 257.288 629.991 256.409L638.946 257C638.491 259.152 637.56 261.03 636.15 262.636C634.756 264.227 632.953 265.47 630.741 266.364C628.544 267.242 626.006 267.682 623.128 267.682ZM650.589 267V232.091H659.975V238.182H660.339C660.975 236.015 662.043 234.379 663.543 233.273C665.043 232.152 666.77 231.591 668.725 231.591C669.21 231.591 669.733 231.621 670.293 231.682C670.854 231.742 671.346 231.826 671.77 231.932V240.523C671.316 240.386 670.687 240.265 669.884 240.159C669.081 240.053 668.346 240 667.68 240C666.255 240 664.983 240.311 663.861 240.932C662.755 241.538 661.876 242.386 661.225 243.477C660.589 244.568 660.27 245.826 660.27 247.25V267H650.589ZM715.504 232.091L703.3 267H692.39L680.186 232.091H690.413L697.663 257.068H698.027L705.254 232.091H715.504ZM725.579 267V232.091H735.26V267H725.579ZM730.442 227.591C729.003 227.591 727.768 227.114 726.738 226.159C725.723 225.189 725.215 224.03 725.215 222.682C725.215 221.348 725.723 220.205 726.738 219.25C727.768 218.28 729.003 217.795 730.442 217.795C731.882 217.795 733.109 218.28 734.124 219.25C735.154 220.205 735.67 221.348 735.67 222.682C735.67 224.03 735.154 225.189 734.124 226.159C733.109 227.114 731.882 227.591 730.442 227.591ZM763.909 267.682C760.333 267.682 757.257 266.924 754.682 265.409C752.121 263.879 750.151 261.758 748.772 259.045C747.409 256.333 746.727 253.212 746.727 249.682C746.727 246.106 747.416 242.97 748.795 240.273C750.189 237.561 752.166 235.447 754.727 233.932C757.288 232.402 760.333 231.636 763.863 231.636C766.909 231.636 769.575 232.189 771.863 233.295C774.151 234.402 775.962 235.955 777.295 237.955C778.629 239.955 779.363 242.303 779.5 245H770.363C770.106 243.258 769.424 241.856 768.318 240.795C767.227 239.72 765.795 239.182 764.022 239.182C762.522 239.182 761.212 239.591 760.091 240.409C758.985 241.212 758.121 242.386 757.5 243.932C756.879 245.477 756.568 247.348 756.568 249.545C756.568 251.773 756.871 253.667 757.477 255.227C758.098 256.788 758.969 257.977 760.091 258.795C761.212 259.614 762.522 260.023 764.022 260.023C765.129 260.023 766.121 259.795 767 259.341C767.894 258.886 768.629 258.227 769.204 257.364C769.795 256.485 770.182 255.432 770.363 254.205H779.5C779.348 256.871 778.621 259.22 777.318 261.25C776.03 263.265 774.25 264.841 771.977 265.977C769.704 267.114 767.015 267.682 763.909 267.682ZM806.728 267.682C803.137 267.682 800.046 266.955 797.455 265.5C794.879 264.03 792.894 261.955 791.5 259.273C790.106 256.576 789.41 253.386 789.41 249.705C789.41 246.114 790.106 242.962 791.5 240.25C792.894 237.538 794.856 235.424 797.387 233.909C799.932 232.394 802.917 231.636 806.341 231.636C808.644 231.636 810.788 232.008 812.773 232.75C814.773 233.477 816.516 234.576 818 236.045C819.5 237.515 820.667 239.364 821.5 241.591C822.334 243.803 822.75 246.394 822.75 249.364V252.023H793.273V246.023H813.637C813.637 244.629 813.334 243.394 812.728 242.318C812.122 241.242 811.281 240.402 810.205 239.795C809.144 239.174 807.91 238.864 806.5 238.864C805.031 238.864 803.728 239.205 802.591 239.886C801.47 240.553 800.591 241.455 799.955 242.591C799.319 243.712 798.993 244.962 798.978 246.341V252.045C798.978 253.773 799.296 255.265 799.932 256.523C800.584 257.78 801.5 258.75 802.682 259.432C803.864 260.114 805.266 260.455 806.887 260.455C807.963 260.455 808.947 260.303 809.841 260C810.735 259.697 811.5 259.242 812.137 258.636C812.773 258.03 813.258 257.288 813.591 256.409L822.546 257C822.091 259.152 821.16 261.03 819.75 262.636C818.356 264.227 816.553 265.47 814.341 266.364C812.144 267.242 809.606 267.682 806.728 267.682Z" fill="#1F4E6B"/>
</svg>
